<mxfile host="app.diagrams.net" agent="Mozilla/5.0 (Windows NT 10.0; Win64; x64) AppleWebKit/537.36 (KHTML, like Gecko) Chrome/130.0.0.0 Safari/537.36 OPR/115.0.0.0" version="26.0.9">
  <diagram name="Page-1" id="7AaHDLMjjc-jFLA11IBk">
    <mxGraphModel dx="740" dy="448" grid="1" gridSize="10" guides="1" tooltips="1" connect="1" arrows="1" fold="1" page="1" pageScale="1" pageWidth="850" pageHeight="1100" math="0" shadow="0">
      <root>
        <mxCell id="0" />
        <mxCell id="1" parent="0" />
        <mxCell id="rmivUMgZM3ylJEdpQ_-M-1" value="Start" style="ellipse;whiteSpace=wrap;html=1;" vertex="1" parent="1">
          <mxGeometry x="240" y="40" width="120" height="70" as="geometry" />
        </mxCell>
        <mxCell id="rmivUMgZM3ylJEdpQ_-M-2" value="" style="endArrow=classic;html=1;rounded=0;" edge="1" parent="1" source="rmivUMgZM3ylJEdpQ_-M-1">
          <mxGeometry width="50" height="50" relative="1" as="geometry">
            <mxPoint x="300" y="250" as="sourcePoint" />
            <mxPoint x="300" y="200" as="targetPoint" />
          </mxGeometry>
        </mxCell>
        <mxCell id="rmivUMgZM3ylJEdpQ_-M-3" value="INPUT: FUNKTSIOONI_ID,&lt;div&gt;TEKST&lt;/div&gt;" style="shape=parallelogram;perimeter=parallelogramPerimeter;whiteSpace=wrap;html=1;fixedSize=1;" vertex="1" parent="1">
          <mxGeometry x="200" y="200" width="200" height="70" as="geometry" />
        </mxCell>
        <mxCell id="rmivUMgZM3ylJEdpQ_-M-4" value="KAS FUNKTSIOONI_ID&lt;div&gt;ON EXPAND_TEKST?&lt;/div&gt;" style="rhombus;whiteSpace=wrap;html=1;" vertex="1" parent="1">
          <mxGeometry x="200" y="330" width="200" height="120" as="geometry" />
        </mxCell>
        <mxCell id="rmivUMgZM3ylJEdpQ_-M-5" value="" style="endArrow=classic;html=1;rounded=0;entryX=0.5;entryY=0;entryDx=0;entryDy=0;exitX=0.5;exitY=1;exitDx=0;exitDy=0;" edge="1" parent="1" source="rmivUMgZM3ylJEdpQ_-M-3" target="rmivUMgZM3ylJEdpQ_-M-4">
          <mxGeometry width="50" height="50" relative="1" as="geometry">
            <mxPoint x="300" y="280" as="sourcePoint" />
            <mxPoint x="350" y="200" as="targetPoint" />
          </mxGeometry>
        </mxCell>
        <mxCell id="rmivUMgZM3ylJEdpQ_-M-6" value="EI" style="endArrow=classic;html=1;rounded=0;" edge="1" parent="1" target="rmivUMgZM3ylJEdpQ_-M-7">
          <mxGeometry width="50" height="50" relative="1" as="geometry">
            <mxPoint x="350" y="420" as="sourcePoint" />
            <mxPoint x="410" y="480" as="targetPoint" />
          </mxGeometry>
        </mxCell>
        <mxCell id="rmivUMgZM3ylJEdpQ_-M-7" value="KAS FUNKTSIOONI_ID&lt;div&gt;ON SIMPLIFY?&lt;/div&gt;" style="rhombus;whiteSpace=wrap;html=1;" vertex="1" parent="1">
          <mxGeometry x="370" y="430" width="180" height="110" as="geometry" />
        </mxCell>
        <mxCell id="rmivUMgZM3ylJEdpQ_-M-8" value="EI" style="endArrow=classic;html=1;rounded=0;" edge="1" parent="1" target="rmivUMgZM3ylJEdpQ_-M-9">
          <mxGeometry width="50" height="50" relative="1" as="geometry">
            <mxPoint x="500" y="510" as="sourcePoint" />
            <mxPoint x="580" y="560" as="targetPoint" />
          </mxGeometry>
        </mxCell>
        <mxCell id="rmivUMgZM3ylJEdpQ_-M-9" value="KAS FUNKTSIOONI_ID&lt;div&gt;ON BULLETPOINTS?&lt;/div&gt;" style="rhombus;whiteSpace=wrap;html=1;" vertex="1" parent="1">
          <mxGeometry x="540" y="520" width="170" height="100" as="geometry" />
        </mxCell>
        <mxCell id="rmivUMgZM3ylJEdpQ_-M-10" value="EI" style="endArrow=classic;html=1;rounded=0;" edge="1" parent="1" target="rmivUMgZM3ylJEdpQ_-M-11">
          <mxGeometry width="50" height="50" relative="1" as="geometry">
            <mxPoint x="660" y="600" as="sourcePoint" />
            <mxPoint x="740" y="650" as="targetPoint" />
          </mxGeometry>
        </mxCell>
        <mxCell id="rmivUMgZM3ylJEdpQ_-M-11" value="KAS FUNKTSIOONI_ID&lt;div&gt;ON KIRJUTAN ISE?&lt;/div&gt;" style="rhombus;whiteSpace=wrap;html=1;" vertex="1" parent="1">
          <mxGeometry x="700" y="610" width="170" height="100" as="geometry" />
        </mxCell>
        <mxCell id="rmivUMgZM3ylJEdpQ_-M-12" value="EI" style="endArrow=classic;html=1;rounded=0;" edge="1" parent="1">
          <mxGeometry width="50" height="50" relative="1" as="geometry">
            <mxPoint x="840" y="680" as="sourcePoint" />
            <mxPoint x="920" y="720" as="targetPoint" />
          </mxGeometry>
        </mxCell>
        <mxCell id="rmivUMgZM3ylJEdpQ_-M-13" value="ERROR HANDLING" style="rounded=0;whiteSpace=wrap;html=1;" vertex="1" parent="1">
          <mxGeometry x="920" y="710" width="120" height="60" as="geometry" />
        </mxCell>
        <mxCell id="rmivUMgZM3ylJEdpQ_-M-14" value="JAH" style="endArrow=classic;html=1;rounded=0;exitX=0;exitY=1;exitDx=0;exitDy=0;" edge="1" parent="1" source="rmivUMgZM3ylJEdpQ_-M-4" target="rmivUMgZM3ylJEdpQ_-M-15">
          <mxGeometry width="50" height="50" relative="1" as="geometry">
            <mxPoint x="290" y="600" as="sourcePoint" />
            <mxPoint x="190" y="460" as="targetPoint" />
          </mxGeometry>
        </mxCell>
        <mxCell id="rmivUMgZM3ylJEdpQ_-M-15" value="PROMPT=TEKST+EXPAND" style="rounded=0;whiteSpace=wrap;html=1;" vertex="1" parent="1">
          <mxGeometry x="40" y="450" width="170" height="60" as="geometry" />
        </mxCell>
        <mxCell id="rmivUMgZM3ylJEdpQ_-M-16" value="JAH" style="endArrow=classic;html=1;rounded=0;exitX=0;exitY=1;exitDx=0;exitDy=0;" edge="1" parent="1" source="rmivUMgZM3ylJEdpQ_-M-7" target="rmivUMgZM3ylJEdpQ_-M-17">
          <mxGeometry width="50" height="50" relative="1" as="geometry">
            <mxPoint x="290" y="600" as="sourcePoint" />
            <mxPoint x="340" y="550" as="targetPoint" />
          </mxGeometry>
        </mxCell>
        <mxCell id="rmivUMgZM3ylJEdpQ_-M-17" value="PROMPT=TEKST+SIMPLIFY" style="rounded=0;whiteSpace=wrap;html=1;" vertex="1" parent="1">
          <mxGeometry x="200" y="535" width="180" height="70" as="geometry" />
        </mxCell>
        <mxCell id="rmivUMgZM3ylJEdpQ_-M-18" value="JAH" style="endArrow=classic;html=1;rounded=0;exitX=0;exitY=1;exitDx=0;exitDy=0;" edge="1" parent="1" source="rmivUMgZM3ylJEdpQ_-M-9" target="rmivUMgZM3ylJEdpQ_-M-19">
          <mxGeometry width="50" height="50" relative="1" as="geometry">
            <mxPoint x="500" y="700" as="sourcePoint" />
            <mxPoint x="510" y="650" as="targetPoint" />
          </mxGeometry>
        </mxCell>
        <mxCell id="rmivUMgZM3ylJEdpQ_-M-19" value="PROMPT=TEKST+BULLETPOINT" style="rounded=0;whiteSpace=wrap;html=1;" vertex="1" parent="1">
          <mxGeometry x="370" y="625" width="190" height="75" as="geometry" />
        </mxCell>
        <mxCell id="rmivUMgZM3ylJEdpQ_-M-20" value="" style="endArrow=classic;html=1;rounded=0;" edge="1" parent="1">
          <mxGeometry width="50" height="50" relative="1" as="geometry">
            <mxPoint x="130" y="520" as="sourcePoint" />
            <mxPoint x="130" y="870" as="targetPoint" />
          </mxGeometry>
        </mxCell>
        <mxCell id="rmivUMgZM3ylJEdpQ_-M-21" value="" style="endArrow=classic;html=1;rounded=0;exitX=0.5;exitY=1;exitDx=0;exitDy=0;" edge="1" parent="1" source="rmivUMgZM3ylJEdpQ_-M-17">
          <mxGeometry width="50" height="50" relative="1" as="geometry">
            <mxPoint x="210" y="710" as="sourcePoint" />
            <mxPoint x="130" y="870" as="targetPoint" />
          </mxGeometry>
        </mxCell>
        <mxCell id="rmivUMgZM3ylJEdpQ_-M-22" value="" style="endArrow=classic;html=1;rounded=0;exitX=0.5;exitY=1;exitDx=0;exitDy=0;" edge="1" parent="1" source="rmivUMgZM3ylJEdpQ_-M-19">
          <mxGeometry width="50" height="50" relative="1" as="geometry">
            <mxPoint x="210" y="710" as="sourcePoint" />
            <mxPoint x="130" y="870" as="targetPoint" />
          </mxGeometry>
        </mxCell>
        <mxCell id="rmivUMgZM3ylJEdpQ_-M-23" value="EDASTAB PROMPTI,TEKSTI&amp;nbsp;&lt;div&gt;API_ROUTE´LE&lt;/div&gt;" style="rounded=0;whiteSpace=wrap;html=1;" vertex="1" parent="1">
          <mxGeometry x="55" y="870" width="155" height="70" as="geometry" />
        </mxCell>
        <mxCell id="rmivUMgZM3ylJEdpQ_-M-24" value="" style="endArrow=classic;html=1;rounded=0;exitX=0.5;exitY=1;exitDx=0;exitDy=0;" edge="1" parent="1" source="rmivUMgZM3ylJEdpQ_-M-23">
          <mxGeometry width="50" height="50" relative="1" as="geometry">
            <mxPoint x="210" y="970" as="sourcePoint" />
            <mxPoint x="133" y="1060" as="targetPoint" />
          </mxGeometry>
        </mxCell>
        <mxCell id="rmivUMgZM3ylJEdpQ_-M-25" value="ASYNC STREAMIB&amp;nbsp;&lt;div&gt;RESPONSE´I&lt;/div&gt;" style="rounded=0;whiteSpace=wrap;html=1;" vertex="1" parent="1">
          <mxGeometry x="59" y="1070" width="147" height="70" as="geometry" />
        </mxCell>
        <mxCell id="rmivUMgZM3ylJEdpQ_-M-26" value="" style="endArrow=classic;html=1;rounded=0;exitX=1;exitY=0.5;exitDx=0;exitDy=0;" edge="1" parent="1" source="rmivUMgZM3ylJEdpQ_-M-25" target="rmivUMgZM3ylJEdpQ_-M-27">
          <mxGeometry width="50" height="50" relative="1" as="geometry">
            <mxPoint x="430" y="1060" as="sourcePoint" />
            <mxPoint x="470" y="1105" as="targetPoint" />
          </mxGeometry>
        </mxCell>
        <mxCell id="rmivUMgZM3ylJEdpQ_-M-27" value="EDASTAB UUE TEKSTI" style="shape=parallelogram;perimeter=parallelogramPerimeter;whiteSpace=wrap;html=1;fixedSize=1;" vertex="1" parent="1">
          <mxGeometry x="410" y="1075" width="120" height="60" as="geometry" />
        </mxCell>
        <mxCell id="rmivUMgZM3ylJEdpQ_-M-28" value="" style="endArrow=classic;html=1;rounded=0;" edge="1" parent="1" target="rmivUMgZM3ylJEdpQ_-M-29">
          <mxGeometry width="50" height="50" relative="1" as="geometry">
            <mxPoint x="520" y="1110" as="sourcePoint" />
            <mxPoint x="680" y="1110" as="targetPoint" />
          </mxGeometry>
        </mxCell>
        <mxCell id="rmivUMgZM3ylJEdpQ_-M-29" value="LÕPP" style="ellipse;whiteSpace=wrap;html=1;" vertex="1" parent="1">
          <mxGeometry x="620" y="1070" width="120" height="80" as="geometry" />
        </mxCell>
        <mxCell id="rmivUMgZM3ylJEdpQ_-M-30" value="" style="endArrow=classic;html=1;rounded=0;exitX=0.5;exitY=1;exitDx=0;exitDy=0;entryX=1;entryY=0;entryDx=0;entryDy=0;" edge="1" parent="1" source="rmivUMgZM3ylJEdpQ_-M-13" target="rmivUMgZM3ylJEdpQ_-M-29">
          <mxGeometry width="50" height="50" relative="1" as="geometry">
            <mxPoint x="870" y="1010" as="sourcePoint" />
            <mxPoint x="920" y="960" as="targetPoint" />
          </mxGeometry>
        </mxCell>
        <mxCell id="rmivUMgZM3ylJEdpQ_-M-31" value="" style="endArrow=classic;html=1;rounded=0;exitX=0;exitY=1;exitDx=0;exitDy=0;" edge="1" parent="1" source="rmivUMgZM3ylJEdpQ_-M-11" target="rmivUMgZM3ylJEdpQ_-M-32">
          <mxGeometry width="50" height="50" relative="1" as="geometry">
            <mxPoint x="660" y="850" as="sourcePoint" />
            <mxPoint x="630" y="800" as="targetPoint" />
          </mxGeometry>
        </mxCell>
        <mxCell id="rmivUMgZM3ylJEdpQ_-M-32" value="LOOB CLIENTILE&lt;div&gt;TEXTBOX KOMPONENDI JA LOOB MUUTUJA:&lt;/div&gt;&lt;div&gt;ALGNE_TEKST=TEKST&lt;/div&gt;&lt;div&gt;&lt;br&gt;&lt;/div&gt;" style="rounded=0;whiteSpace=wrap;html=1;" vertex="1" parent="1">
          <mxGeometry x="540" y="750" width="160" height="90" as="geometry" />
        </mxCell>
        <mxCell id="rmivUMgZM3ylJEdpQ_-M-33" value="" style="endArrow=classic;html=1;rounded=0;exitX=0.5;exitY=1;exitDx=0;exitDy=0;" edge="1" parent="1" source="rmivUMgZM3ylJEdpQ_-M-32" target="rmivUMgZM3ylJEdpQ_-M-34">
          <mxGeometry width="50" height="50" relative="1" as="geometry">
            <mxPoint x="660" y="850" as="sourcePoint" />
            <mxPoint x="600" y="910" as="targetPoint" />
          </mxGeometry>
        </mxCell>
        <mxCell id="rmivUMgZM3ylJEdpQ_-M-34" value="KASUTAJA SAAB&amp;nbsp;&lt;div&gt;MUUTA TEKSTI&lt;/div&gt;" style="shape=parallelogram;perimeter=parallelogramPerimeter;whiteSpace=wrap;html=1;fixedSize=1;" vertex="1" parent="1">
          <mxGeometry x="500" y="880" width="160" height="70" as="geometry" />
        </mxCell>
        <mxCell id="rmivUMgZM3ylJEdpQ_-M-35" value="" style="endArrow=classic;html=1;rounded=0;exitX=1;exitY=1;exitDx=0;exitDy=0;entryX=0.347;entryY=0.029;entryDx=0;entryDy=0;entryPerimeter=0;" edge="1" parent="1" source="rmivUMgZM3ylJEdpQ_-M-34" target="rmivUMgZM3ylJEdpQ_-M-29">
          <mxGeometry width="50" height="50" relative="1" as="geometry">
            <mxPoint x="660" y="1010" as="sourcePoint" />
            <mxPoint x="710" y="960" as="targetPoint" />
          </mxGeometry>
        </mxCell>
      </root>
    </mxGraphModel>
  </diagram>
</mxfile>
